<svg width="41" height="40" viewBox="0 0 41 40" fill="none" xmlns="http://www.w3.org/2000/svg">
<circle cx="20.3333" cy="20" r="19" fill="#2C7EF8" stroke="#2C7EF8" stroke-width="2"/>
<path d="M19.6033 27.29C18.89 27.29 18.2333 27.1633 17.6333 26.91C17.0333 26.6567 16.5166 26.2967 16.0833 25.83C15.65 25.3567 15.3333 24.7933 15.1333 24.14L16.5333 23.72C16.7733 24.4333 17.1666 24.9733 17.7133 25.34C18.2666 25.7067 18.89 25.8833 19.5833 25.87C20.2233 25.8567 20.7733 25.7133 21.2333 25.44C21.7 25.1667 22.0566 24.7867 22.3033 24.3C22.55 23.8133 22.6733 23.25 22.6733 22.61C22.6733 21.63 22.3866 20.8433 21.8133 20.25C21.2466 19.65 20.4966 19.35 19.5633 19.35C19.3033 19.35 19.03 19.3867 18.7433 19.46C18.4566 19.5267 18.19 19.6233 17.9433 19.75L17.2033 18.58L22.8033 13.41L23.0433 14.01H15.7033V12.6H24.0233V14.03L19.1433 18.69L19.1233 18.11C20.1233 17.9833 21.0033 18.0967 21.7633 18.45C22.5233 18.8033 23.1166 19.3433 23.5433 20.07C23.9766 20.79 24.1933 21.6367 24.1933 22.61C24.1933 23.53 23.9933 24.3433 23.5933 25.05C23.2 25.75 22.6566 26.3 21.9633 26.7C21.27 27.0933 20.4833 27.29 19.6033 27.29Z" fill="white"/>
</svg>
